# Blender v2.90.1 OBJ File: 'tutorial.blend'
# www.blender.org
mtllib floor2.mtl
o Cube_Cube.001
v -100.000000 -1.000000 100.000000
v -100.000000 1.000000 100.000000
v -100.000000 -1.000000 -100.000000
v -100.000000 1.000000 -100.000000
v 100.000000 -1.000000 100.000000
v 100.000000 1.000000 100.000000
v 100.000000 -1.000000 -100.000000
v 100.000000 1.000000 -100.000000
v -100.000000 1.000000 0.000000
v 0.000000 1.000000 -100.000000
v 100.000000 1.000000 0.000000
v 0.000000 1.000000 100.000000
v 0.000000 1.000000 0.000000
v -9.090909 1.000000 100.000000
v -18.181818 1.000000 100.000000
v -27.272728 1.000000 100.000000
v -36.363636 1.000000 100.000000
v -45.454544 1.000000 100.000000
v -54.545456 1.000000 100.000000
v -63.636364 1.000000 100.000000
v -72.727272 1.000000 100.000000
v -81.818184 1.000000 100.000000
v -90.909088 1.000000 100.000000
v -100.000000 1.000000 90.909088
v -100.000000 1.000000 81.818176
v -100.000000 1.000000 72.727264
v -100.000000 1.000000 63.636356
v -100.000000 1.000000 54.545448
v -100.000000 1.000000 45.454540
v -100.000000 1.000000 36.363632
v -100.000000 1.000000 27.272724
v -100.000000 1.000000 18.181816
v -100.000000 1.000000 9.090908
v 0.000000 1.000000 9.090909
v 0.000000 1.000000 18.181818
v 0.000000 1.000000 27.272728
v 0.000000 1.000000 36.363636
v 0.000000 1.000000 45.454544
v 0.000000 1.000000 54.545456
v 0.000000 1.000000 63.636364
v 0.000000 1.000000 72.727272
v 0.000000 1.000000 81.818184
v 0.000000 1.000000 90.909088
v -90.909088 1.000000 0.000000
v -81.818176 1.000000 0.000000
v -72.727264 1.000000 0.000000
v -63.636356 1.000000 0.000000
v -54.545448 1.000000 0.000000
v -45.454540 1.000000 0.000000
v -36.363632 1.000000 0.000000
v -27.272724 1.000000 0.000000
v -18.181816 1.000000 0.000000
v -9.090908 1.000000 0.000000
v -9.090908 1.000000 9.090909
v -9.090908 1.000000 18.181818
v -9.090908 1.000000 27.272728
v -9.090908 1.000000 36.363636
v -9.090908 1.000000 45.454544
v -9.090908 1.000000 54.545456
v -9.090908 1.000000 63.636364
v -9.090908 1.000000 72.727272
v -9.090908 1.000000 81.818184
v -9.090908 1.000000 90.909088
v -18.181816 1.000000 9.090909
v -24.849056 1.000000 23.309044
v -19.540348 1.000000 29.574848
v -15.759010 1.000000 36.864857
v -13.694660 1.000000 44.813515
v -13.450809 1.000000 53.022243
v -15.039688 1.000000 61.079426
v -18.381620 1.000000 68.581039
v -23.309029 1.000000 75.150925
v -18.181816 1.000000 90.909088
v -27.272724 1.000000 9.090909
v -31.418938 1.000000 18.381636
v -25.743929 1.000000 27.624937
v -20.016829 1.000000 36.215588
v -17.224689 1.000000 46.155548
v -17.640827 1.000000 56.471836
v -21.224503 1.000000 66.154610
v -27.624922 1.000000 74.256065
v -29.574833 1.000000 80.459625
v -27.272728 1.000000 90.909088
v -36.363632 1.000000 9.090909
v -38.920551 1.000000 15.039703
v -33.845383 1.000000 21.224518
v -36.363632 1.000000 36.363636
v -36.363632 1.000000 45.454544
v -36.363632 1.000000 54.545456
v -36.363632 1.000000 63.636364
v -36.215572 1.000000 79.983162
v -36.864841 1.000000 84.240967
v -36.363632 1.000000 90.909088
v -45.454540 1.000000 9.090909
v -46.977734 1.000000 13.450825
v -43.528156 1.000000 17.640842
v -45.454540 1.000000 36.363636
v -45.454540 1.000000 45.454544
v -45.454540 1.000000 54.545456
v -45.454540 1.000000 63.636364
v -46.155533 1.000000 82.775299
v -44.813499 1.000000 86.305313
v -45.454544 1.000000 90.909088
v -54.545448 1.000000 9.090909
v -55.186462 1.000000 13.694675
v -53.844444 1.000000 17.224705
v -54.545448 1.000000 36.363636
v -54.545448 1.000000 45.454544
v -54.545448 1.000000 54.545456
v -54.545448 1.000000 63.636364
v -56.471821 1.000000 82.359161
v -53.022228 1.000000 86.549164
v -54.545456 1.000000 90.909088
v -63.636356 1.000000 9.090909
v -63.135120 1.000000 15.759026
v -63.784405 1.000000 20.016844
v -63.636356 1.000000 36.363636
v -63.636356 1.000000 45.454544
v -63.636356 1.000000 54.545456
v -63.636356 1.000000 63.636364
v -66.154594 1.000000 78.775490
v -61.079411 1.000000 84.960289
v -63.636360 1.000000 90.909088
v -72.727264 1.000000 9.090909
v -70.425125 1.000000 19.540363
v -72.375053 1.000000 25.743944
v -78.775475 1.000000 33.845398
v -82.359146 1.000000 43.528172
v -82.775284 1.000000 53.844460
v -79.983147 1.000000 63.784420
v -74.256050 1.000000 72.375069
v -68.581024 1.000000 81.618355
v -72.727264 1.000000 90.909088
v -81.818176 1.000000 9.090909
v -76.690933 1.000000 24.849072
v -81.618340 1.000000 31.418953
v -84.960274 1.000000 38.920567
v -86.549149 1.000000 46.977749
v -86.305298 1.000000 55.186478
v -84.240952 1.000000 63.135136
v -80.459610 1.000000 70.425140
v -75.150909 1.000000 76.690948
v -81.818176 1.000000 90.909088
v -90.909088 1.000000 9.090909
v -90.909088 1.000000 18.181818
v -90.909088 1.000000 27.272728
v -90.909088 1.000000 36.363636
v -90.909088 1.000000 45.454544
v -90.909088 1.000000 54.545456
v -90.909088 1.000000 63.636364
v -90.909088 1.000000 72.727272
v -90.909088 1.000000 81.818184
v -90.909088 1.000000 90.909088
v -24.849056 4.000000 23.309044
v -19.540348 4.000000 29.574848
v -15.759010 4.000000 36.864857
v -13.694660 4.000000 44.813515
v -13.450809 4.000000 53.022243
v -15.039688 4.000000 61.079426
v -18.381620 4.000000 68.581039
v -23.309029 4.000000 75.150925
v -31.418938 4.000000 18.381636
v -25.743929 4.000000 27.624937
v -20.016829 4.000000 36.215588
v -17.224689 4.000000 46.155548
v -17.640827 4.000000 56.471836
v -21.224503 4.000000 66.154610
v -27.624922 4.000000 74.256065
v -29.574833 4.000000 80.459625
v -38.920551 4.000000 15.039703
v -33.845383 4.000000 21.224518
v -36.215572 4.000000 79.983162
v -36.864841 4.000000 84.240967
v -46.977734 4.000000 13.450825
v -43.528156 4.000000 17.640842
v -46.155533 4.000000 82.775299
v -44.813499 4.000000 86.305313
v -55.186462 4.000000 13.694675
v -53.844444 4.000000 17.224705
v -56.471821 4.000000 82.359161
v -53.022228 4.000000 86.549164
v -63.135120 4.000000 15.759026
v -63.784405 4.000000 20.016844
v -66.154594 4.000000 78.775490
v -61.079411 4.000000 84.960289
v -70.425125 4.000000 19.540363
v -72.375053 4.000000 25.743944
v -78.775475 4.000000 33.845398
v -82.359146 4.000000 43.528172
v -82.775284 4.000000 53.844460
v -79.983147 4.000000 63.784420
v -74.256050 4.000000 72.375069
v -68.581024 4.000000 81.618355
v -76.690933 4.000000 24.849072
v -81.618340 4.000000 31.418953
v -84.960274 4.000000 38.920567
v -86.549149 4.000000 46.977749
v -86.305298 4.000000 55.186478
v -84.240952 4.000000 63.135136
v -80.459610 4.000000 70.425140
v -75.150909 4.000000 76.690948
vt 0.375000 0.000000
vt 0.625000 0.000000
vt 0.625000 0.011364
vt 0.625000 0.022727
vt 0.625000 0.034091
vt 0.625000 0.045455
vt 0.625000 0.056818
vt 0.625000 0.068182
vt 0.625000 0.079545
vt 0.625000 0.090909
vt 0.625000 0.102273
vt 0.625000 0.113636
vt 0.625000 0.125000
vt 0.625000 0.250000
vt 0.375000 0.250000
vt 0.625000 0.375000
vt 0.625000 0.500000
vt 0.375000 0.500000
vt 0.625000 0.625000
vt 0.625000 0.750000
vt 0.375000 0.750000
vt 0.625000 0.875000
vt 0.625000 0.886364
vt 0.625000 0.897727
vt 0.625000 0.909091
vt 0.625000 0.920455
vt 0.625000 0.931818
vt 0.625000 0.943182
vt 0.625000 0.954545
vt 0.625000 0.965909
vt 0.625000 0.977273
vt 0.625000 0.988636
vt 0.625000 1.000000
vt 0.375000 1.000000
vt 0.125000 0.500000
vt 0.125000 0.750000
vt 0.954454 0.954455
vt 0.999900 0.954455
vt 0.999900 0.999900
vt 0.954454 0.999900
vt 0.000100 0.500000
vt 0.500000 0.500000
vt 0.500000 0.545446
vt 0.500000 0.590891
vt 0.500000 0.636336
vt 0.500000 0.681782
vt 0.500000 0.727227
vt 0.500000 0.772673
vt 0.500000 0.818118
vt 0.500000 0.863564
vt 0.500000 0.909009
vt 0.500000 0.954455
vt 0.500000 0.999900
vt 0.000100 0.999900
vt 0.000100 0.000100
vt 0.500000 0.000100
vt 0.999900 0.000100
vt 0.999900 0.500000
vt 0.954455 0.500000
vt 0.909009 0.500000
vt 0.863564 0.500000
vt 0.818118 0.500000
vt 0.772673 0.500000
vt 0.727227 0.500000
vt 0.681782 0.500000
vt 0.636336 0.500000
vt 0.590891 0.500000
vt 0.545445 0.500000
vt 0.545445 0.954455
vt 0.545445 0.999900
vt 0.590891 0.954455
vt 0.590891 0.999900
vt 0.636336 0.954455
vt 0.636336 0.999900
vt 0.681782 0.954455
vt 0.681782 0.999900
vt 0.727227 0.954455
vt 0.727227 0.999900
vt 0.772673 0.954455
vt 0.772673 0.999900
vt 0.818118 0.954455
vt 0.818118 0.999900
vt 0.863564 0.954455
vt 0.863564 0.999900
vt 0.909009 0.954455
vt 0.909009 0.999900
vt 0.545445 0.545445
vt 0.545445 0.590891
vt 0.545445 0.636336
vt 0.545445 0.681782
vt 0.545445 0.727227
vt 0.545445 0.772673
vt 0.545445 0.818118
vt 0.545445 0.863564
vt 0.545445 0.909009
vt 0.590891 0.545445
vt 0.590891 0.590891
vt 0.590891 0.636336
vt 0.590891 0.681782
vt 0.590891 0.727227
vt 0.590891 0.772673
vt 0.590891 0.818118
vt 0.590891 0.863564
vt 0.590891 0.909009
vt 0.636336 0.545446
vt 0.636336 0.590891
vt 0.863564 0.590891
vt 0.909009 0.590891
vt 0.909009 0.590891
vt 0.863564 0.590891
vt 0.636336 0.818118
vt 0.636336 0.863564
vt 0.636336 0.863564
vt 0.636336 0.818118
vt 0.909009 0.863564
vt 0.909009 0.909009
vt 0.909009 0.909009
vt 0.909009 0.863564
vt 0.772673 0.863564
vt 0.818118 0.863564
vt 0.818118 0.863564
vt 0.772673 0.863564
vt 0.590891 0.681782
vt 0.590891 0.727227
vt 0.863564 0.772673
vt 0.863564 0.727227
vt 0.863564 0.727227
vt 0.863564 0.772673
vt 0.636336 0.772673
vt 0.636336 0.772673
vt 0.636336 0.909009
vt 0.681782 0.545446
vt 0.681782 0.590891
vt 0.909009 0.818118
vt 0.909009 0.818118
vt 0.636336 0.636336
vt 0.681782 0.636336
vt 0.681782 0.681782
vt 0.636336 0.681782
vt 0.681782 0.727227
vt 0.636336 0.727227
vt 0.681782 0.772673
vt 0.681782 0.818118
vt 0.681782 0.863564
vt 0.590891 0.636336
vt 0.681782 0.909009
vt 0.727227 0.545446
vt 0.727227 0.590891
vt 0.863564 0.681782
vt 0.863564 0.681782
vt 0.727227 0.636336
vt 0.727227 0.681782
vt 0.727227 0.727227
vt 0.727227 0.772673
vt 0.727227 0.818118
vt 0.727227 0.863564
vt 0.636336 0.727227
vt 0.727227 0.909009
vt 0.772673 0.545446
vt 0.772673 0.590891
vt 0.909009 0.772673
vt 0.909009 0.772673
vt 0.772673 0.636336
vt 0.772673 0.681782
vt 0.772673 0.727227
vt 0.772673 0.772673
vt 0.772673 0.818118
vt 0.727227 0.636336
vt 0.772673 0.636336
vt 0.772673 0.909009
vt 0.818118 0.545446
vt 0.818118 0.590891
vt 0.590891 0.590891
vt 0.818118 0.636336
vt 0.818118 0.681782
vt 0.818118 0.727227
vt 0.818118 0.772673
vt 0.818118 0.818118
vt 0.863564 0.636336
vt 0.863564 0.636336
vt 0.818118 0.909009
vt 0.863564 0.545446
vt 0.636336 0.909009
vt 0.681782 0.909009
vt 0.863564 0.818118
vt 0.863564 0.863564
vt 0.863564 0.909009
vt 0.818118 0.909009
vt 0.863564 0.909009
vt 0.909009 0.545446
vt 0.636336 0.681782
vt 0.909009 0.727227
vt 0.909009 0.727227
vt 0.772673 0.590891
vt 0.727227 0.590891
vt 0.681782 0.863564
vt 0.863564 0.863564
vt 0.636336 0.636336
vt 0.909009 0.681782
vt 0.909009 0.681782
vt 0.954454 0.545446
vt 0.954454 0.590891
vt 0.954454 0.636336
vt 0.909009 0.636336
vt 0.954454 0.681782
vt 0.954454 0.727227
vt 0.954454 0.772673
vt 0.954454 0.818118
vt 0.954454 0.863564
vt 0.954454 0.909009
vt 0.999900 0.545446
vt 0.999900 0.590891
vt 0.999900 0.636336
vt 0.999900 0.681782
vt 0.999900 0.727227
vt 0.999900 0.772673
vt 0.999900 0.818118
vt 0.999900 0.863564
vt 0.999900 0.909009
vt 0.636336 0.590891
vt 0.590891 0.772673
vt 0.590891 0.818118
vt 0.590891 0.863564
vt 0.590891 0.909009
vt 0.681782 0.590891
vt 0.681782 0.636336
vt 0.727227 0.863564
vt 0.727227 0.909009
vt 0.772673 0.909009
vt 0.818118 0.590891
vt 0.818118 0.636336
vt 0.909009 0.636336
vt 0.863564 0.818118
vn -1.0000 -0.0000 0.0000
vn 0.0000 0.0000 -1.0000
vn 1.0000 0.0000 0.0000
vn 0.0000 0.0000 1.0000
vn 0.0000 -1.0000 0.0000
vn 0.0000 1.0000 0.0000
vn -0.6464 0.0000 -0.7630
vn -0.7847 0.0000 -0.6199
vn -0.7630 0.0000 0.6464
vn 0.3471 0.0000 -0.9378
vn 0.9679 0.0000 -0.2514
vn 0.9992 0.0000 0.0403
vn -0.9378 0.0000 -0.3471
vn -0.8877 0.0000 0.4604
vn 0.8877 0.0000 -0.4604
vn 0.9378 0.0000 0.3471
vn -0.9992 0.0000 -0.0403
vn -0.9679 0.0000 0.2514
vn -0.0403 0.0000 0.9992
vn 0.7630 0.0000 -0.6464
vn 0.7847 0.0000 0.6199
vn 0.4604 0.0000 0.8877
vn -0.4069 0.0000 0.9135
vn -0.9627 0.0000 0.2704
vn -0.9996 0.0000 0.0297
vn -0.0297 0.0000 -0.9996
vn -0.5547 0.0000 -0.8321
vn 0.6199 0.0000 -0.7847
vn -0.8321 0.0000 0.5547
vn -0.9811 0.0000 -0.1935
vn 0.1935 0.0000 -0.9811
vn 0.9627 0.0000 -0.2704
vn 0.9996 0.0000 -0.0297
vn -0.1935 0.0000 0.9811
vn 0.6464 0.0000 0.7630
vn -0.3471 0.0000 0.9378
vn 0.8321 0.0000 -0.5547
vn 0.9811 0.0000 0.1935
vn 0.9135 0.0000 0.4069
vn 0.0403 0.0000 -0.9992
vn 0.8000 0.0000 0.6000
vn -0.4604 0.0000 -0.8877
vn 0.4069 0.0000 -0.9135
vn 0.0297 0.0000 0.9996
vn 0.5547 0.0000 0.8321
vn -0.6199 0.0000 0.7847
vn -0.2704 0.0000 -0.9627
vn -0.2514 0.0000 -0.9679
vn -0.6000 0.0000 0.8000
vn 0.6000 0.0000 -0.8000
vn 0.2514 0.0000 0.9679
vn -0.8000 0.0000 -0.6000
vn 0.2704 0.0000 0.9627
vn -0.9135 0.0000 -0.4069
usemtl test
s off
f 1/1/1 2/2/1 24/3/1 25/4/1 26/5/1 27/6/1 28/7/1 29/8/1 30/9/1 31/10/1 32/11/1 33/12/1 9/13/1 4/14/1 3/15/1
f 3/15/2 4/14/2 10/16/2 8/17/2 7/18/2
f 7/18/3 8/17/3 11/19/3 6/20/3 5/21/3
f 5/21/4 6/20/4 12/22/4 14/23/4 15/24/4 16/25/4 17/26/4 18/27/4 19/28/4 20/29/4 21/30/4 22/31/4 23/32/4 2/33/4 1/34/4
f 3/35/5 7/18/5 5/21/5 1/36/5
f 153/37/6 24/38/6 2/39/6 23/40/6
f 11/41/6 13/42/6 34/43/6 35/44/6 36/45/6 37/46/6 38/47/6 39/48/6 40/49/6 41/50/6 42/51/6 43/52/6 12/53/6 6/54/6
f 8/55/6 10/56/6 13/42/6 11/41/6
f 10/56/6 4/57/6 9/58/6 44/59/6 45/60/6 46/61/6 47/62/6 48/63/6 49/64/6 50/65/6 51/66/6 52/67/6 53/68/6 13/42/6
f 43/52/6 63/69/6 14/70/6 12/53/6
f 63/69/6 73/71/6 15/72/6 14/70/6
f 73/71/6 83/73/6 16/74/6 15/72/6
f 83/73/6 93/75/6 17/76/6 16/74/6
f 93/75/6 103/77/6 18/78/6 17/76/6
f 103/77/6 113/79/6 19/80/6 18/78/6
f 113/79/6 123/81/6 20/82/6 19/80/6
f 123/81/6 133/83/6 21/84/6 20/82/6
f 133/83/6 143/85/6 22/86/6 21/84/6
f 143/85/6 153/37/6 23/40/6 22/86/6
f 13/42/6 53/68/6 54/87/6 34/43/6
f 34/43/6 54/87/6 55/88/6 35/44/6
f 35/44/6 55/88/6 56/89/6 36/45/6
f 36/45/6 56/89/6 57/90/6 37/46/6
f 37/46/6 57/90/6 58/91/6 38/47/6
f 38/47/6 58/91/6 59/92/6 39/48/6
f 39/48/6 59/92/6 60/93/6 40/49/6
f 40/49/6 60/93/6 61/94/6 41/50/6
f 41/50/6 61/94/6 62/95/6 42/51/6
f 42/51/6 62/95/6 63/69/6 43/52/6
f 53/68/6 52/67/6 64/96/6 54/87/6
f 54/87/6 64/96/6 65/97/6 55/88/6
f 55/88/6 65/97/6 66/98/6 56/89/6
f 56/89/6 66/98/6 67/99/6 57/90/6
f 57/90/6 67/99/6 68/100/6 58/91/6
f 58/91/6 68/100/6 69/101/6 59/92/6
f 59/92/6 69/101/6 70/102/6 60/93/6
f 60/93/6 70/102/6 71/103/6 61/94/6
f 61/94/6 71/103/6 72/104/6 62/95/6
f 62/95/6 72/104/6 73/71/6 63/69/6
f 52/67/6 51/66/6 74/105/6 64/96/6
f 64/96/6 74/105/6 75/106/6 65/97/6
f 125/107/7 135/108/7 194/109/7 186/110/7
f 80/111/8 81/112/8 168/113/8 167/114/8
f 141/115/9 142/116/9 201/117/9 200/118/9
f 111/119/10 121/120/10 184/121/10 180/122/10
f 68/100/11 67/99/11 156/123/11 157/124/11
f 129/125/12 128/126/12 189/127/12 190/128/12
f 79/129/13 80/111/13 167/114/13 166/130/13
f 72/104/6 82/131/6 83/73/6 73/71/6
f 51/66/6 50/65/6 84/132/6 74/105/6
f 74/105/6 84/132/6 85/133/6 75/106/6
f 140/134/14 141/115/14 200/118/14 199/135/14
f 76/136/6 86/137/6 87/138/6 77/139/6
f 77/139/6 87/138/6 88/140/6 78/141/6
f 78/141/6 88/140/6 89/142/6 79/129/6
f 79/129/6 89/142/6 90/143/6 80/111/6
f 80/111/6 90/143/6 91/144/6 81/112/6
f 67/99/15 66/98/15 155/145/15 156/123/15
f 82/131/6 92/146/6 93/75/6 83/73/6
f 50/65/6 49/64/6 94/147/6 84/132/6
f 84/132/6 94/147/6 95/148/6 85/133/6
f 128/126/16 127/149/16 188/150/16 189/127/16
f 86/137/6 96/151/6 97/152/6 87/138/6
f 87/138/6 97/152/6 98/153/6 88/140/6
f 88/140/6 98/153/6 99/154/6 89/142/6
f 89/142/6 99/154/6 100/155/6 90/143/6
f 90/143/6 100/155/6 101/156/6 91/144/6
f 78/141/17 79/129/17 166/130/17 165/157/17
f 92/146/6 102/158/6 103/77/6 93/75/6
f 49/64/6 48/63/6 104/159/6 94/147/6
f 94/147/6 104/159/6 105/160/6 95/148/6
f 139/161/18 140/134/18 199/135/18 198/162/18
f 96/151/6 106/163/6 107/164/6 97/152/6
f 97/152/6 107/164/6 108/165/6 98/153/6
f 98/153/6 108/165/6 109/166/6 99/154/6
f 99/154/6 109/166/6 110/167/6 100/155/6
f 100/155/6 110/167/6 111/119/6 101/156/6
f 106/163/19 96/151/19 175/168/19 179/169/19
f 102/158/6 112/170/6 113/79/6 103/77/6
f 48/63/6 47/62/6 114/171/6 104/159/6
f 104/159/6 114/171/6 115/172/6 105/160/6
f 66/98/20 65/97/20 154/173/20 155/145/20
f 106/163/6 116/174/6 117/175/6 107/164/6
f 107/164/6 117/175/6 118/176/6 108/165/6
f 108/165/6 118/176/6 119/177/6 109/166/6
f 109/166/6 119/177/6 120/178/6 110/167/6
f 110/167/6 120/178/6 121/120/6 111/119/6
f 127/149/21 126/179/21 187/180/21 188/150/21
f 112/170/6 122/181/6 123/81/6 113/79/6
f 47/62/6 46/61/6 124/182/6 114/171/6
f 114/171/6 124/182/6 125/107/6 115/172/6
f 92/146/22 82/131/22 169/183/22 173/184/22
f 116/174/6 126/179/6 127/149/6 117/175/6
f 117/175/6 127/149/6 128/126/6 118/176/6
f 118/176/6 128/126/6 129/125/6 119/177/6
f 119/177/6 129/125/6 130/185/6 120/178/6
f 120/178/6 130/185/6 131/186/6 121/120/6
f 132/187/23 122/181/23 185/188/23 193/189/23
f 122/181/6 132/187/6 133/83/6 123/81/6
f 46/61/6 45/60/6 134/190/6 124/182/6
f 124/182/6 134/190/6 135/108/6 125/107/6
f 77/139/24 78/141/24 165/157/24 164/191/24
f 138/192/25 139/161/25 198/162/25 197/193/25
f 95/148/26 105/160/26 178/194/26 174/195/26
f 81/112/27 91/144/27 172/196/27 168/113/27
f 121/120/28 131/186/28 192/197/28 184/121/28
f 76/136/29 77/139/29 164/191/29 163/198/29
f 137/199/30 138/192/30 197/193/30 196/200/30
f 132/187/6 142/116/6 143/85/6 133/83/6
f 45/60/6 44/59/6 144/201/6 134/190/6
f 134/190/6 144/201/6 145/202/6 135/108/6
f 135/108/6 145/202/6 146/203/6 136/204/6
f 136/204/6 146/203/6 147/205/6 137/199/6
f 137/199/6 147/205/6 148/206/6 138/192/6
f 138/192/6 148/206/6 149/207/6 139/161/6
f 139/161/6 149/207/6 150/208/6 140/134/6
f 140/134/6 150/208/6 151/209/6 141/115/6
f 141/115/6 151/209/6 152/210/6 142/116/6
f 142/116/6 152/210/6 153/37/6 143/85/6
f 44/59/6 9/58/6 33/211/6 144/201/6
f 144/201/6 33/211/6 32/212/6 145/202/6
f 145/202/6 32/212/6 31/213/6 146/203/6
f 146/203/6 31/213/6 30/214/6 147/205/6
f 147/205/6 30/214/6 29/215/6 148/206/6
f 148/206/6 29/215/6 28/216/6 149/207/6
f 149/207/6 28/216/6 27/217/6 150/208/6
f 150/208/6 27/217/6 26/218/6 151/209/6
f 151/209/6 26/218/6 25/219/6 152/210/6
f 152/210/6 25/219/6 24/38/6 153/37/6
f 154/173/6 162/220/6 163/198/6 155/145/6
f 155/145/6 163/198/6 164/191/6 156/123/6
f 156/123/6 164/191/6 165/157/6 157/124/6
f 157/124/6 165/157/6 166/130/6 158/221/6
f 158/221/6 166/130/6 167/114/6 159/222/6
f 159/222/6 167/114/6 168/113/6 160/223/6
f 160/223/6 168/113/6 169/183/6 161/224/6
f 162/220/6 170/225/6 171/226/6 163/198/6
f 168/113/6 172/196/6 173/184/6 169/183/6
f 170/225/6 174/195/6 175/168/6 171/226/6
f 172/196/6 176/227/6 177/228/6 173/184/6
f 174/195/6 178/194/6 179/169/6 175/168/6
f 176/227/6 180/122/6 181/229/6 177/228/6
f 178/194/6 182/230/6 183/231/6 179/169/6
f 180/122/6 184/121/6 185/188/6 181/229/6
f 182/230/6 186/110/6 187/180/6 183/231/6
f 184/121/6 192/197/6 193/189/6 185/188/6
f 186/110/6 194/109/6 195/232/6 187/180/6
f 187/180/6 195/232/6 196/200/6 188/150/6
f 188/150/6 196/200/6 197/193/6 189/127/6
f 189/127/6 197/193/6 198/162/6 190/128/6
f 190/128/6 198/162/6 199/135/6 191/233/6
f 191/233/6 199/135/6 200/118/6 192/197/6
f 192/197/6 200/118/6 201/117/6 193/189/6
f 85/133/31 95/148/31 174/195/31 170/225/31
f 130/185/32 129/125/32 190/128/32 191/233/32
f 69/101/33 68/100/33 157/124/33 158/221/33
f 122/181/34 112/170/34 181/229/34 185/188/34
f 82/131/35 72/104/35 161/224/35 169/183/35
f 96/151/36 86/137/36 171/226/36 175/168/36
f 131/186/37 130/185/37 191/233/37 192/197/37
f 70/102/38 69/101/38 158/221/38 159/222/38
f 71/103/39 70/102/39 159/222/39 160/223/39
f 101/156/40 111/119/40 180/122/40 176/227/40
f 72/104/41 71/103/41 160/223/41 161/224/41
f 115/172/42 125/107/42 186/110/42 182/230/42
f 75/106/43 85/133/43 170/225/43 162/220/43
f 112/170/44 102/158/44 177/228/44 181/229/44
f 126/179/45 116/174/45 183/231/45 187/180/45
f 86/137/46 76/136/46 163/198/46 171/226/46
f 91/144/47 101/156/47 176/227/47 172/196/47
f 105/160/48 115/172/48 182/230/48 178/194/48
f 142/116/49 132/187/49 193/189/49 201/117/49
f 65/97/50 75/106/50 162/220/50 154/173/50
f 102/158/51 92/146/51 173/184/51 177/228/51
f 135/108/52 136/204/52 195/232/52 194/109/52
f 116/174/53 106/163/53 179/169/53 183/231/53
f 136/204/54 137/199/54 196/200/54 195/232/54
